<svg xmlns="http://www.w3.org/2000/svg" viewBox="0 0 2725 496"><defs><style>.a{fill:#ffa366;}.b{fill:#ff944c;}.c{fill:#ff8533;}.d{fill:#ff7519;}.e{fill:#f60;}.f{fill:#3795cd;}.g{fill:#1e88c7;}.h{fill:#057bc1;}.i{fill:#b37eb4;}.j{fill:#a768a7;}.k{fill:#9a539b;}.l{fill:#8e3d8e;}.m{fill:#812882;}.n{fill:#fff;}</style></defs><polygon class="a" points="0 330.67 0 165.33 82.67 248 82.67 254.45 11.01 326.11 0 330.67"/><polygon class="b" points="165.33 330.67 154.33 335.23 11.01 335.23 0 330.67 82.67 248 165.33 330.67"/><polygon class="c" points="0 330.67 165.33 330.67 160.77 341.67 89.11 413.33 82.67 413.33 0 330.67"/><polygon class="d" points="165.33 330.67 169.89 341.67 169.89 484.99 165.33 496 82.67 413.33 165.33 330.67"/><polygon class="e" points="165.33 496 165.33 330.67 171.78 330.67 243.4 402.24 248 413.33 165.33 496"/><polygon class="f" points="330.67 165.33 330.67 330.67 324.22 330.67 252.56 259.01 248 248 252.56 236.99 324.22 165.33 330.67 165.33"/><polygon class="g" points="248 413.33 243.4 402.24 243.4 259.1 248 248 330.67 330.67 248 413.33"/><polygon class="h" points="248 248 248 413.33 165.33 330.67 248 248"/><polygon class="i" points="0 0 165.33 0 165.33 6.45 93.76 78.07 82.67 82.67 0 0"/><polygon class="j" points="248 82.67 236.99 87.22 93.67 87.22 82.67 82.67 165.33 0 248 82.67"/><polygon class="k" points="82.67 82.67 248 82.67 243.44 93.67 171.78 165.33 165.33 165.33 82.67 82.67"/><polygon class="l" points="248 82.67 252.56 93.67 252.56 236.99 248 248 165.33 165.33 248 82.67"/><polygon class="m" points="248 248 248 82.67 330.67 165.33 248 248"/><path class="n" d="M535.66,373.69V96.43h81.89q36.75,0,65.22,16.38t44.09,46.46q15.6,30.09,15.61,68.94v13.9q0,39.42-15.71,69.31A110.26,110.26,0,0,1,682,357.51q-29,16.19-66.56,16.18Zm48.18-238.41v200h31.42q37.9,0,58.18-23.71t20.66-68.08V228q0-45.14-19.61-68.94t-56.94-23.8Z"/><path class="n" d="M903,353.51q-20.38,24-57.89,24-33.52,0-50.75-19.61t-17.23-56.75V167.65h46.27V300.57q0,39.23,32.56,39.23,33.72,0,45.52-24.19v-148h46.27v206H904.15Z"/><path class="n" d="M1030,167.65l1.33,23.8q22.85-27.6,60-27.61,64.37,0,65.51,73.7V373.69h-46.27V240.2q0-19.6-8.48-29t-27.7-9.42q-28,0-41.71,25.32V373.69H986.43v-206Z"/><path class="n" d="M1241.8,190.12q22.67-26.28,57.32-26.28,65.88,0,66.84,75.22V373.69h-46.27V240.77q0-21.32-9.24-30.18t-27.14-8.85q-27.8,0-41.51,24.75v147.2h-46.27V81.19h46.27Z"/><path class="n" d="M1528,373.69q-3-5.9-5.33-19.23-22.1,23-54.08,23-31,0-50.65-17.71T1398.34,316q0-32.94,24.47-50.56t70-17.61h28.38V234.3q0-16-9-25.61T1485,199.07q-15.81,0-25.9,7.9T1449,227.06h-46.28q0-16.94,11.24-31.7t30.56-23.14q19.32-8.39,43.13-8.38,36.18,0,57.7,18.19t22.09,51.13v92.93q0,27.8,7.81,44.37v3.23Zm-50.84-33.32a52.56,52.56,0,0,0,25.8-6.67,44.51,44.51,0,0,0,18.19-17.9V277h-25q-25.71,0-38.66,9t-12.94,25.32q0,13.33,8.85,21.24T1477.18,340.37Z"/><path class="n" d="M1651.62,167.65l1.33,21.52q21.72-25.33,59.42-25.33,41.31,0,56.55,31.61,22.47-31.6,63.23-31.61,34.08,0,50.75,18.85t17,55.61V373.69h-46.27V239.63q0-19.6-8.57-28.75t-28.38-9.14q-15.81,0-25.8,8.47a44.68,44.68,0,0,0-14,22.18l.19,141.3h-46.27V238.11q-1-36.37-37.13-36.37-27.81,0-39.42,22.66V373.69H1608v-206Z"/><polygon class="n" points="2079.83 298.86 2088.4 341.89 2098.87 300.76 2159.05 96.43 2180.18 96.43 2239.6 300.76 2249.88 342.27 2259.02 298.86 2309.11 96.43 2333.1 96.43 2262.07 373.69 2239.6 373.69 2176.76 156.79 2169.71 129.37 2162.86 156.79 2098.49 373.69 2076.02 373.69 2005.18 96.43 2029.17 96.43 2079.83 298.86"/><path class="n" d="M2444.89,377.5q-26.28,0-47.51-12.95a88.21,88.21,0,0,1-33-36.08q-11.82-23.14-11.81-51.9v-8.18q0-29.71,11.52-53.51t32.09-37.42a79.13,79.13,0,0,1,44.56-13.62q37.52,0,59.51,25.61t22,70v12.75h-147v4.38q0,35,20.09,58.37t50.56,23.33q18.28,0,32.28-6.67t25.42-21.32l14.28,10.85Q2492.7,377.51,2444.89,377.5Zm-4.19-194.24q-25.71,0-43.32,18.86T2376,252.77h123.59V250.3q-.95-29.72-16.95-48.37T2440.7,183.26Z"/><path class="n" d="M2724.64,272.77q0,48.18-21.33,76.45T2646,377.5q-43,0-65.13-32l-1,28.18h-21.33V81.19h22.66V197.55q21.72-33.7,64.37-33.71,36.55,0,57.79,27.9t21.24,77.6Zm-22.85-4q0-40.75-15.81-62.94t-44.56-22.19q-21.9,0-37.13,10.76t-23.05,31.52v92.93q17.15,38.85,60.56,38.85,28.18,0,44.08-22.28T2701.79,268.77Z"/></svg>